<svg width="110" height="108" viewBox="0 0 110 108" fill="none" xmlns="http://www.w3.org/2000/svg">
<path fill-rule="evenodd" clip-rule="evenodd" d="M47.1286 31.1614V62.6944H41.0231V37.1311C41.0231 33.8614 43.7731 31.1614 47.1286 31.1614Z" fill="#BDBFC1"/>
<path fill-rule="evenodd" clip-rule="evenodd" d="M63.9565 17.5128V49.0458H57.8762V23.5073C57.8762 20.2128 60.6262 17.5128 63.9565 17.5128Z" fill="#BDBFC1"/>
<path fill-rule="evenodd" clip-rule="evenodd" d="M55.7568 23.2348V54.7678H49.6766V29.2293C49.6766 25.9348 52.4013 23.2348 55.7568 23.2348Z" fill="#BDBFC1"/>
<path fill-rule="evenodd" clip-rule="evenodd" d="M77.7064 30.6661L75.7385 29.8487C79.4977 40.4257 76.7477 42.8532 69.1285 50.9285C60.3991 58.1367 47.5826 63.4377 56.9427 73.5936L58.6835 74.6092C56.8418 69.1844 57.4473 68.7138 61.484 64.6019C71.6009 56.1551 88.9083 46.5688 79.8005 32.6973L77.7064 30.6661Z" fill="url(#paint0_linear)"/>
<path fill-rule="evenodd" clip-rule="evenodd" d="M37.9704 42.7293C24.3466 50.1605 28.8879 61.8275 36.608 71.166C36.3053 66.2862 35.8764 65.2706 38.8282 61.2578C32.2686 55.9569 33.0002 49.4917 37.819 43.3238L37.9704 42.7293Z" fill="#423E3E"/>
<path d="M22.9587 86.0285C22.9587 86.5239 22.883 86.9946 22.7317 87.3909C22.6055 87.7872 22.4037 88.1588 22.1766 88.456C21.9243 88.7781 21.6216 89.0505 21.2936 89.2735C20.9404 89.4964 20.5619 89.6698 20.1583 89.8184C19.7294 89.9671 19.3005 90.0661 18.8211 90.1405C18.367 90.2148 17.8372 90.2395 17.2569 90.2395H13.4725C13.2202 90.2395 13.0184 90.1652 12.8417 90.0414C12.6904 89.8927 12.6147 89.6698 12.6147 89.3478V77.0863C12.6147 76.7891 12.6904 76.5414 12.8417 76.4175C13.0184 76.2689 13.2202 76.1946 13.4725 76.1946H17.0551C17.9381 76.1946 18.6697 76.2689 19.2752 76.4175C19.8807 76.5661 20.3853 76.7891 20.8142 77.0616C21.2179 77.3588 21.5459 77.7304 21.7729 78.1762C21.9748 78.6221 22.1009 79.1671 22.1009 79.7616C22.1009 80.1083 22.0505 80.4304 21.9495 80.7276C21.8739 81.0249 21.7477 81.2973 21.5711 81.545C21.3945 81.7927 21.1927 82.0157 20.9404 82.1891C20.7133 82.3872 20.4358 82.5359 20.1078 82.6597C20.5115 82.734 20.8899 82.8579 21.2431 83.0313C21.5711 83.2047 21.8739 83.4524 22.1262 83.7249C22.3784 84.0221 22.5803 84.3441 22.7317 84.7405C22.883 85.112 22.9587 85.5579 22.9587 86.0285ZM19.1995 80.1083C19.1995 79.8359 19.1491 79.5634 19.0734 79.3405C18.9725 79.1175 18.8463 78.9441 18.6697 78.7955C18.4931 78.6469 18.2661 78.523 17.9885 78.4487C17.7362 78.3744 17.383 78.3249 16.9289 78.3249H15.4656V81.9661H17.0803C17.484 81.9661 17.8372 81.9166 18.0895 81.8175C18.3417 81.7432 18.5436 81.5946 18.695 81.4212C18.8716 81.2478 18.9977 81.0496 19.0734 80.8267C19.1491 80.6038 19.1995 80.356 19.1995 80.1083ZM19.9312 86.1276C19.9312 85.8056 19.8807 85.5083 19.7798 85.2606C19.6537 84.9882 19.5023 84.79 19.3005 84.6166C19.0734 84.4432 18.7959 84.2946 18.4679 84.1955C18.1399 84.1212 17.711 84.0716 17.1812 84.0716H15.4656V88.0597H17.5596C17.9633 88.0597 18.2913 88.0349 18.5688 87.9359C18.8463 87.8616 19.0986 87.7377 19.3005 87.5643C19.5023 87.4157 19.6537 87.2175 19.7798 86.9698C19.8807 86.7221 19.9312 86.4496 19.9312 86.1276Z" fill="url(#paint1_linear)"/>
<path d="M35.1949 88.1338C35.1949 88.3072 35.1949 88.4559 35.1697 88.5797C35.1697 88.7036 35.1444 88.8274 35.1192 88.9017C35.094 89.0008 35.0687 89.0751 35.0435 89.1494C34.993 89.2238 34.9426 89.2981 34.8669 89.3724C34.7912 89.4467 34.6146 89.5458 34.3875 89.6944C34.1605 89.8183 33.883 89.9421 33.5297 90.066C33.2018 90.165 32.8233 90.2641 32.3944 90.3384C31.9655 90.4375 31.4862 90.4623 30.9816 90.4623C30.0229 90.4623 29.1398 90.3137 28.3325 90.0164C27.5504 89.7192 26.8944 89.2733 26.3394 88.7036C25.7843 88.1091 25.3554 87.366 25.0527 86.4742C24.7752 85.6072 24.6238 84.5669 24.6238 83.4027C24.6238 82.2137 24.7752 81.1485 25.1031 80.232C25.4311 79.2907 25.8852 78.5228 26.4655 77.9036C27.0458 77.2595 27.7522 76.7889 28.5596 76.4669C29.3669 76.1449 30.2752 75.9715 31.2591 75.9715C31.6375 75.9715 32.016 75.9962 32.3944 76.0705C32.7729 76.1449 33.1008 76.2192 33.4288 76.3183C33.7316 76.4421 34.0091 76.566 34.2614 76.6898C34.5137 76.8384 34.6903 76.9623 34.7912 77.0366C34.8921 77.1605 34.9426 77.2348 34.993 77.2843C35.0183 77.3586 35.0687 77.4329 35.0687 77.532C35.094 77.6559 35.1192 77.755 35.1444 77.9036C35.1444 78.0274 35.1444 78.2008 35.1444 78.399C35.1444 78.6219 35.1444 78.8201 35.1192 78.9687C35.1192 79.1173 35.094 79.2412 35.0435 79.3155C35.0183 79.4146 34.9678 79.4889 34.9174 79.5384C34.8669 79.5632 34.7912 79.588 34.7408 79.588C34.6398 79.588 34.4885 79.5384 34.3119 79.4146C34.1605 79.2907 33.9334 79.1421 33.6559 78.9935C33.4036 78.8201 33.0756 78.6962 32.6972 78.5724C32.344 78.4485 31.8898 78.3742 31.3852 78.3742C30.805 78.3742 30.3004 78.4981 29.8463 78.721C29.4174 78.9439 29.0389 79.266 28.7109 79.6871C28.4082 80.1082 28.1811 80.6283 28.0045 81.2228C27.8531 81.8173 27.7774 82.5109 27.7774 83.254C27.7774 84.0715 27.8531 84.7898 28.0297 85.3843C28.2063 86.0036 28.4334 86.499 28.7614 86.8953C29.0894 87.2669 29.4678 87.5641 29.9219 87.7623C30.3761 87.9605 30.8807 88.0348 31.4609 88.0348C31.9655 88.0348 32.4197 87.9852 32.7981 87.8614C33.1513 87.7375 33.4793 87.6137 33.7568 87.465C34.0343 87.3412 34.2362 87.1926 34.4128 87.0935C34.5894 86.9696 34.7155 86.9201 34.8164 86.9201C34.8921 86.9201 34.9426 86.9201 34.993 86.9449C35.0435 86.9944 35.0687 87.0439 35.094 87.1183C35.1444 87.2173 35.1444 87.3412 35.1697 87.4898C35.1949 87.6632 35.1949 87.8614 35.1949 88.1338Z" fill="url(#paint2_linear)"/>
<path d="M48.4402 89.8678C48.4402 89.9173 48.415 89.9916 48.3645 90.0659C48.314 90.1155 48.2384 90.165 48.1374 90.1898C48.0365 90.2393 47.8851 90.2641 47.6833 90.2889C47.5067 90.3136 47.2796 90.3136 47.0021 90.3136C46.7246 90.3136 46.4723 90.3136 46.2957 90.2889C46.0939 90.2641 45.9677 90.2393 45.8416 90.1898C45.7407 90.165 45.665 90.1155 45.6145 90.0659C45.564 89.9916 45.5388 89.9173 45.5388 89.8678V84.1705H40.1902V89.8678C40.1902 89.9173 40.165 89.9916 40.1145 90.0659C40.064 90.1155 39.9884 90.165 39.8874 90.1898C39.7613 90.2393 39.6351 90.2641 39.4333 90.2889C39.2567 90.3136 39.0296 90.3136 38.7521 90.3136C38.4494 90.3136 38.2223 90.3136 38.0457 90.2889C37.8439 90.2641 37.6925 90.2393 37.5916 90.1898C37.4907 90.165 37.415 90.1155 37.3645 90.0659C37.314 89.9916 37.2888 89.9173 37.2888 89.8678V76.5907C37.2888 76.5164 37.314 76.4421 37.3645 76.3925C37.415 76.343 37.4907 76.2935 37.5916 76.2439C37.6925 76.2191 37.8439 76.1944 38.0457 76.1696C38.2223 76.1448 38.4494 76.1201 38.7521 76.1201C39.0296 76.1201 39.2567 76.1448 39.4333 76.1696C39.6351 76.1944 39.7613 76.2191 39.8874 76.2439C39.9884 76.2935 40.064 76.343 40.1145 76.3925C40.165 76.4421 40.1902 76.5164 40.1902 76.5907V81.743H45.5388V76.5907C45.5388 76.5164 45.564 76.4421 45.6145 76.3925C45.665 76.343 45.7407 76.2935 45.8416 76.2439C45.9677 76.2191 46.0939 76.1944 46.2957 76.1696C46.4723 76.1448 46.7246 76.1201 47.0021 76.1201C47.2796 76.1201 47.5067 76.1448 47.6833 76.1696C47.8851 76.1944 48.0365 76.2191 48.1374 76.2439C48.2384 76.2935 48.314 76.343 48.3645 76.3925C48.415 76.4421 48.4402 76.5164 48.4402 76.5907V89.8678Z" fill="url(#paint3_linear)"/>
<path d="M63.275 89.1742C63.3759 89.4467 63.4263 89.6448 63.4516 89.7935C63.4768 89.9421 63.4516 90.0659 63.3759 90.1402C63.275 90.2146 63.1488 90.2641 62.9217 90.2889C62.7199 90.3136 62.4424 90.3136 62.0892 90.3136C61.7107 90.3136 61.408 90.3136 61.2061 90.2889C60.9791 90.2889 60.8277 90.2641 60.7268 90.2393C60.6006 90.1898 60.525 90.165 60.4997 90.0907C60.4493 90.0412 60.3988 89.9668 60.3736 89.8678L59.4401 87.0439H54.041L53.1328 89.7935C53.1075 89.8925 53.0823 89.9916 53.0318 90.0412C52.9814 90.1155 52.9057 90.165 52.8048 90.2146C52.6786 90.2393 52.5273 90.2641 52.3506 90.2889C52.1488 90.3136 51.8965 90.3136 51.5685 90.3136C51.2406 90.3136 50.963 90.3136 50.7864 90.2889C50.5846 90.2641 50.4584 90.2146 50.3828 90.1155C50.3071 90.0412 50.2818 89.9173 50.3071 89.7687C50.3323 89.6201 50.3828 89.4219 50.4584 89.1494L54.8736 76.6898C54.924 76.5659 54.9745 76.4668 55.025 76.3925C55.0754 76.3182 55.1763 76.2687 55.3025 76.2191C55.4286 76.1696 55.6052 76.1448 55.8575 76.1448C56.0846 76.1448 56.3873 76.1201 56.7406 76.1201C57.1947 76.1201 57.5227 76.1448 57.8002 76.1448C58.0525 76.1448 58.2543 76.1696 58.4057 76.2191C58.5318 76.2687 58.6328 76.3182 58.7084 76.3925C58.7589 76.4916 58.8094 76.5907 58.8598 76.7146L63.275 89.1742ZM56.7153 78.8696L54.7222 84.8393H58.7337L56.7153 78.8696Z" fill="url(#paint4_linear)"/>
<path d="M75.9153 89.868C75.9153 89.9671 75.89 90.0166 75.8648 90.0909C75.8396 90.1404 75.7639 90.19 75.663 90.2148C75.5368 90.2395 75.3854 90.2643 75.1584 90.2891C74.9565 90.3138 74.6538 90.3138 74.3006 90.3138C73.9978 90.3138 73.7455 90.3138 73.5689 90.2891C73.3671 90.2643 73.2157 90.2395 73.1148 90.2148C73.0139 90.1652 72.9382 90.1157 72.8877 90.0661C72.8625 89.9918 72.812 89.9175 72.7868 89.8432L71.5001 86.6973C71.3487 86.3258 71.1974 86.0038 71.046 85.7313C70.8946 85.4588 70.718 85.2359 70.5414 85.0377C70.3648 84.8643 70.163 84.7157 69.9107 84.6414C69.6836 84.5423 69.4061 84.4927 69.1033 84.4927H68.1951V89.868C68.1951 89.9175 68.1698 89.9918 68.1194 90.0414C68.0689 90.1157 67.9932 90.1652 67.8671 90.19C67.7662 90.2395 67.6148 90.2643 67.4382 90.2891C67.2616 90.3138 67.0093 90.3138 66.7318 90.3138C66.4543 90.3138 66.2272 90.3138 66.0254 90.2891C65.8487 90.2643 65.6974 90.2395 65.5965 90.19C65.4703 90.1652 65.3946 90.1157 65.3694 90.0661C65.3189 89.9918 65.2937 89.9175 65.2937 89.868V77.0863C65.2937 76.7891 65.3694 76.5414 65.546 76.4175C65.6974 76.2689 65.8992 76.1946 66.1515 76.1946H69.8602C70.2387 76.1946 70.5414 76.1946 70.7937 76.2194C71.0208 76.2441 71.2478 76.2441 71.4497 76.2689C72.0299 76.3432 72.5345 76.4918 72.9886 76.69C73.468 76.8882 73.8464 77.1359 74.1744 77.4579C74.5024 77.7551 74.7295 78.1267 74.9061 78.5726C75.0827 78.9937 75.1584 79.4891 75.1584 80.034C75.1584 80.5047 75.1079 80.9505 74.9818 81.3221C74.8556 81.7184 74.679 82.0652 74.452 82.3625C74.1997 82.6597 73.9221 82.9322 73.5689 83.1551C73.2157 83.3781 72.8373 83.5515 72.3831 83.7001C72.6102 83.7992 72.812 83.923 72.9886 84.0716C73.1653 84.2203 73.3671 84.3937 73.5185 84.5918C73.6951 84.8148 73.8464 85.0377 73.9978 85.3102C74.1492 85.5579 74.2753 85.8551 74.4267 86.2019L75.6377 88.9762C75.7386 89.2487 75.8143 89.4469 75.8648 89.5707C75.89 89.6946 75.9153 89.7937 75.9153 89.868ZM72.1561 80.3313C72.1561 79.8854 72.0552 79.4891 71.8281 79.1671C71.6263 78.845 71.2731 78.6221 70.7685 78.4982C70.6423 78.4487 70.4657 78.4239 70.2639 78.3992C70.0873 78.3744 69.835 78.3744 69.4818 78.3744H68.1951V82.3625H69.6836C70.0873 82.3625 70.4405 82.3129 70.7432 82.2138C71.0712 82.1148 71.3235 81.9661 71.5253 81.7927C71.7272 81.6193 71.9038 81.3964 72.0047 81.1735C72.1056 80.9258 72.1561 80.6533 72.1561 80.3313Z" fill="url(#paint5_linear)"/>
<path d="M87.3187 77.3588C87.3187 77.5817 87.3187 77.7551 87.2935 77.9038C87.2683 78.0524 87.243 78.1762 87.2178 78.2753C87.1673 78.3496 87.1421 78.4239 87.0664 78.4735C87.016 78.4982 86.9655 78.523 86.8898 78.523H83.3072V89.868C83.3072 89.9175 83.3072 89.9918 83.2568 90.0661C83.2063 90.1157 83.1054 90.1652 83.0045 90.19C82.9036 90.2395 82.7522 90.2643 82.5504 90.2891C82.3738 90.3138 82.1467 90.3138 81.8692 90.3138C81.5664 90.3138 81.3394 90.3138 81.1628 90.2891C80.9609 90.2643 80.8095 90.2395 80.7086 90.19C80.6077 90.1652 80.5068 90.1157 80.4563 90.0661C80.4311 89.9918 80.4059 89.9175 80.4059 89.868V78.523H76.8233C76.7476 78.523 76.6719 78.4982 76.6215 78.4735C76.571 78.4239 76.5458 78.3496 76.4953 78.2753C76.4701 78.1762 76.4449 78.0524 76.4196 77.9038C76.3944 77.7551 76.3944 77.5817 76.3944 77.3588C76.3944 77.1606 76.3944 76.9625 76.4196 76.8138C76.4449 76.6652 76.4701 76.5414 76.4953 76.4423C76.5458 76.368 76.571 76.2937 76.6215 76.2441C76.6719 76.2194 76.7476 76.1946 76.8233 76.1946H86.8898C86.9655 76.1946 87.016 76.2194 87.0664 76.2441C87.1421 76.2937 87.1673 76.368 87.2178 76.4423C87.243 76.5414 87.2683 76.6652 87.2935 76.8138C87.3187 76.9625 87.3187 77.1606 87.3187 77.3588Z" fill="url(#paint6_linear)"/>
<path d="M97.4104 86.0284C97.4104 86.7715 97.2591 87.4156 96.9815 87.9853C96.704 88.5302 96.3256 89.0009 95.8462 89.3724C95.3669 89.744 94.8118 90.0165 94.1559 90.2146C93.5251 90.388 92.8439 90.4871 92.1123 90.4871C91.6077 90.4871 91.1536 90.4623 90.7247 90.3633C90.2958 90.2889 89.9173 90.1899 89.6146 90.066C89.2866 89.9669 89.0091 89.8431 88.782 89.7192C88.5802 89.5954 88.4288 89.4715 88.3279 89.3972C88.227 89.2981 88.1513 89.1495 88.126 88.9761C88.0756 88.8027 88.0504 88.555 88.0504 88.2082C88.0504 87.9853 88.0504 87.8119 88.0756 87.6633C88.1008 87.4899 88.126 87.3908 88.1513 87.2917C88.1765 87.1926 88.227 87.1183 88.2774 87.0935C88.3279 87.044 88.4036 87.0192 88.4793 87.0192C88.5802 87.0192 88.7315 87.0935 88.9082 87.1926C89.11 87.3165 89.3371 87.4651 89.6398 87.5889C89.9426 87.7376 90.2958 87.8862 90.6994 87.9853C91.1031 88.1091 91.5825 88.1834 92.1123 88.1834C92.4655 88.1834 92.7935 88.1339 93.071 88.0596C93.3485 87.9605 93.6008 87.8614 93.8026 87.7128C93.9793 87.5642 94.1306 87.366 94.2315 87.1431C94.3325 86.9201 94.3829 86.6724 94.3829 86.4C94.3829 86.0779 94.3072 85.8055 94.1306 85.5825C93.954 85.3596 93.727 85.1614 93.4242 84.9633C93.1467 84.7899 92.8187 84.6412 92.4655 84.4678C92.1123 84.3192 91.7338 84.1458 91.3554 83.9724C90.9517 83.799 90.5985 83.6009 90.2201 83.3779C89.8669 83.1798 89.5389 82.9073 89.2614 82.61C88.9838 82.288 88.7568 81.9165 88.5549 81.4954C88.3783 81.099 88.3026 80.5789 88.3026 80.0091C88.3026 79.3156 88.4288 78.7458 88.6811 78.2256C88.9334 77.7055 89.2866 77.2844 89.7155 76.9623C90.1444 76.6156 90.649 76.3678 91.2293 76.1945C91.8095 76.0211 92.4403 75.9467 93.0962 75.9467C93.4242 75.9467 93.7774 75.9715 94.1054 76.0211C94.4586 76.0706 94.7614 76.1449 95.0641 76.244C95.3669 76.3183 95.6192 76.4174 95.8462 76.5165C96.0733 76.6403 96.2247 76.7146 96.3004 76.7889C96.376 76.8633 96.4265 76.9376 96.4517 76.9871C96.477 77.0367 96.5022 77.111 96.5274 77.1853C96.5274 77.2596 96.5526 77.3587 96.5526 77.5073C96.5526 77.6312 96.5779 77.7798 96.5779 77.9779C96.5779 78.1761 96.5526 78.3495 96.5526 78.4981C96.5526 78.6467 96.5274 78.7706 96.5022 78.8697C96.477 78.944 96.4265 79.0183 96.376 79.0678C96.3256 79.1174 96.2751 79.1422 96.1994 79.1422C96.1237 79.1422 95.9724 79.0678 95.7958 78.9688C95.6192 78.8697 95.4173 78.7706 95.165 78.6467C94.8875 78.5229 94.5848 78.4238 94.2568 78.3247C93.9036 78.2256 93.5504 78.1761 93.1467 78.1761C92.8187 78.1761 92.5412 78.2009 92.3141 78.3C92.0618 78.3743 91.8852 78.4734 91.7086 78.5972C91.5572 78.7458 91.4311 78.8945 91.3554 79.0926C91.2797 79.266 91.2545 79.4642 91.2545 79.6871C91.2545 79.9844 91.3302 80.2568 91.5068 80.4798C91.6834 80.7275 91.9104 80.9256 92.2132 81.099C92.4907 81.2724 92.8187 81.4458 93.1971 81.5945C93.5756 81.7431 93.954 81.9165 94.3325 82.0899C94.7109 82.2633 95.0893 82.4614 95.4426 82.6844C95.821 82.9073 96.149 83.1798 96.4517 83.477C96.7293 83.7743 96.9563 84.1458 97.1329 84.5669C97.3095 84.988 97.4104 85.4587 97.4104 86.0284Z" fill="url(#paint7_linear)"/>
<defs>
<linearGradient id="paint0_linear" x1="61.4456" y1="56.3386" x2="74.4473" y2="47.916" gradientUnits="userSpaceOnUse">
<stop stop-color="#EEAA2A"/>
<stop offset="1" stop-color="#CB8B27"/>
</linearGradient>
<linearGradient id="paint1_linear" x1="17.7867" y1="79.4249" x2="17.7867" y2="87.0092" gradientUnits="userSpaceOnUse">
<stop stop-color="#EEAA2A"/>
<stop offset="1" stop-color="#423E3E"/>
</linearGradient>
<linearGradient id="paint2_linear" x1="29.9093" y1="79.3043" x2="29.9093" y2="87.1294" gradientUnits="userSpaceOnUse">
<stop stop-color="#EEAA2A"/>
<stop offset="1" stop-color="#423E3E"/>
</linearGradient>
<linearGradient id="paint3_linear" x1="42.8645" y1="79.3846" x2="42.8645" y2="87.0491" gradientUnits="userSpaceOnUse">
<stop stop-color="#EEAA2A"/>
<stop offset="1" stop-color="#423E3E"/>
</linearGradient>
<linearGradient id="paint4_linear" x1="56.8793" y1="79.3846" x2="56.8793" y2="87.0491" gradientUnits="userSpaceOnUse">
<stop stop-color="#EEAA2A"/>
<stop offset="1" stop-color="#423E3E"/>
</linearGradient>
<linearGradient id="paint5_linear" x1="70.6045" y1="79.442" x2="70.6045" y2="87.0664" gradientUnits="userSpaceOnUse">
<stop stop-color="#EEAA2A"/>
<stop offset="1" stop-color="#423E3E"/>
</linearGradient>
<linearGradient id="paint6_linear" x1="81.8566" y1="79.442" x2="81.8566" y2="87.0664" gradientUnits="userSpaceOnUse">
<stop stop-color="#EEAA2A"/>
<stop offset="1" stop-color="#423E3E"/>
</linearGradient>
<linearGradient id="paint7_linear" x1="92.7304" y1="79.291" x2="92.7304" y2="87.1429" gradientUnits="userSpaceOnUse">
<stop stop-color="#EEAA2A"/>
<stop offset="1" stop-color="#423E3E"/>
</linearGradient>
</defs>
</svg>
