<svg width="48" height="48" viewBox="0 0 48 48" fill="none" xmlns="http://www.w3.org/2000/svg">
<path d="M13.5 29.8594H6C5.58581 29.8594 5.25 30.1952 5.25 30.6094V47.1094C5.25 47.5236 5.58581 47.8594 6 47.8594H13.5C13.9142 47.8594 14.25 47.5236 14.25 47.1094V30.6094C14.25 30.1952 13.9142 29.8594 13.5 29.8594Z" fill="#FEC7B0"/>
<path d="M7.5 47.1094V30.6094C7.5 30.1952 7.83581 29.8594 8.25 29.8594H6C5.58581 29.8594 5.25 30.1952 5.25 30.6094V47.1094C5.25 47.5236 5.58581 47.8594 6 47.8594H8.25C7.83581 47.8594 7.5 47.5236 7.5 47.1094Z" fill="#FEAA88"/>
<path d="M27.75 26.1094H20.25C19.8358 26.1094 19.5 26.4452 19.5 26.8594V47.1094C19.5 47.5236 19.8358 47.8594 20.25 47.8594H27.75C28.1642 47.8594 28.5 47.5236 28.5 47.1094V26.8594C28.5 26.4452 28.1642 26.1094 27.75 26.1094Z" fill="#FEAA88"/>
<path d="M21.75 47.1094V26.8594C21.75 26.4452 22.0858 26.1094 22.5 26.1094H20.25C19.8358 26.1094 19.5 26.4452 19.5 26.8594V47.1094C19.5 47.5236 19.8358 47.8594 20.25 47.8594H22.5C22.0858 47.8594 21.75 47.5236 21.75 47.1094Z" fill="#FD8E61"/>
<path d="M42 17.8594H34.5C34.0858 17.8594 33.75 18.1952 33.75 18.6094V47.1094C33.75 47.5236 34.0858 47.8594 34.5 47.8594H42C42.4142 47.8594 42.75 47.5236 42.75 47.1094V18.6094C42.75 18.1952 42.4142 17.8594 42 17.8594Z" fill="#FD8E61"/>
<path d="M36 47.1094V18.6094C36 18.1952 36.3358 17.8594 36.75 17.8594H34.5C34.0858 17.8594 33.75 18.1952 33.75 18.6094V47.1094C33.75 47.5236 34.0858 47.8594 34.5 47.8594H36.75C36.3358 47.8594 36 47.5236 36 47.1094Z" fill="#FD7239"/>
<path d="M47.25 47.8594H0.75C0.335812 47.8594 0 47.5236 0 47.1094C0 46.6952 0.335812 46.3594 0.75 46.3594H47.25C47.6642 46.3594 48 46.6952 48 47.1094C48 47.5236 47.6642 47.8594 47.25 47.8594Z" fill="#AAB4BD"/>
<path d="M45.2427 0.516179C44.9202 0.231366 44.4905 0.0988039 44.064 0.152241L38.064 0.902241C37.2419 1.00499 36.6588 1.75471 36.7616 2.57671C36.8643 3.3989 37.6149 3.98137 38.436 3.87909L40.6923 3.59708C33.0607 13.0928 23.6775 17.933 16.9446 20.3466C9.08452 23.1644 3.01355 23.3895 2.95308 23.3914C2.12574 23.4171 1.47558 24.1085 1.5007 24.9361C1.52527 25.7486 2.19174 26.3906 2.99911 26.3906C3.01449 26.3906 3.02986 26.3904 3.04533 26.39C3.30764 26.382 9.56386 26.1614 17.8471 23.2099C22.7061 21.4785 27.259 19.1593 31.3791 16.3167C35.6537 13.3675 39.4665 9.84487 42.75 5.82159V7.64062C42.75 8.46899 43.4215 9.14062 44.25 9.14062C45.0784 9.14062 45.75 8.46899 45.75 7.64062V1.64062C45.75 1.2104 45.5652 0.800898 45.2427 0.516179Z" fill="#55697A"/>
</svg>
