<svg width="48" height="48" viewBox="0 0 48 48" fill="none" xmlns="http://www.w3.org/2000/svg">
<g clip-path="url(#clip0)">
<path d="M35.5374 47.2969H2.99695C4.83122 45.0307 7.63687 43.5825 10.78 43.5825H27.7542C30.8975 43.5826 33.7031 45.0307 35.5374 47.2969Z" fill="#F9F6F9"/>
<path d="M18.955 43.5826C15.8118 43.5826 13.0062 45.0307 11.1719 47.297H2.99695C4.83122 45.0308 7.63687 43.5826 10.78 43.5826H18.955Z" fill="#DDDAEC"/>
<path d="M27.7541 44.5176H10.7799C5.25003 44.5176 0.767242 40.0348 0.767242 34.5049V26.318C0.767242 20.7882 5.25003 16.3053 10.7799 16.3053H27.7541C33.2839 16.3053 37.7668 20.7881 37.7668 26.318V34.5049C37.7668 40.0348 33.2839 44.5176 27.7541 44.5176Z" fill="#F9F6F9"/>
<path d="M18.955 44.5169H10.7801C5.25012 44.5169 0.767242 40.0341 0.767242 34.505V26.3179C0.767242 20.7879 5.25012 16.3051 10.7801 16.3051H18.955C13.425 16.3051 8.94211 20.7879 8.94211 26.3179V34.505C8.94211 40.034 13.425 44.5169 18.955 44.5169Z" fill="#DDDAEC"/>
<path d="M25.894 36.2758H12.64C9.16873 36.2758 6.35474 33.4619 6.35474 29.9906V26.6337C6.35474 23.1624 9.16873 20.3484 12.64 20.3484H25.894C29.3653 20.3484 32.1793 23.1624 32.1793 26.6337V29.9906C32.1793 33.4619 29.3652 36.2758 25.894 36.2758Z" fill="#9DC6FB"/>
<path d="M17.6952 36.2763H12.6401C9.16882 36.2763 6.35474 33.4622 6.35474 29.9909V26.6336C6.35474 23.1633 9.16882 20.3492 12.6401 20.3492H17.6952C14.2239 20.3492 11.4098 23.1633 11.4098 26.6336V29.9909C11.4098 33.4622 14.2239 36.2763 17.6952 36.2763Z" fill="#80B4FB"/>
<path d="M13.2632 30.4115C14.7545 30.4115 15.9635 29.2025 15.9635 27.7112C15.9635 26.2198 14.7545 25.0108 13.2632 25.0108C11.7718 25.0108 10.5628 26.2198 10.5628 27.7112C10.5628 29.2025 11.7718 30.4115 13.2632 30.4115Z" fill="#FFE07D"/>
<path d="M25.2708 30.4115C26.7622 30.4115 27.9712 29.2025 27.9712 27.7112C27.9712 26.2198 26.7622 25.0108 25.2708 25.0108C23.7794 25.0108 22.5704 26.2198 22.5704 27.7112C22.5704 29.2025 23.7794 30.4115 25.2708 30.4115Z" fill="#FFE07D"/>
<path d="M25.3445 0.702637H41.1551C44.5114 0.702637 47.2323 3.42353 47.2323 6.77988V11.8665C47.2323 15.2229 44.5114 17.9438 41.1551 17.9438H33.2102L29.407 22.2896C28.279 23.5786 26.1558 22.7808 26.1558 21.0678V17.9438H25.3445C21.9882 17.9438 19.2673 15.2229 19.2673 11.8665V6.77988C19.2673 3.42353 21.9882 0.702637 25.3445 0.702637Z" fill="#FFE07D"/>
<path d="M29.3356 22.3685C28.1911 23.5442 26.1569 22.7446 26.1569 21.0682V17.9438H25.3455C21.9894 17.9438 19.2683 15.2228 19.2683 11.8667V6.77966C19.2683 3.42359 21.9894 0.702515 25.3455 0.702515H27.9987C24.6418 0.702515 21.9215 3.42359 21.9215 6.77966V11.8667C21.9215 15.2228 24.6418 17.9438 27.9987 17.9438H28.8101V21.0682C28.81 21.6025 29.0169 22.0482 29.3356 22.3685Z" fill="#FFD064"/>
<path d="M14.1078 30.2755C13.8423 30.3633 13.5581 30.411 13.2626 30.411C11.7715 30.411 10.5626 29.2022 10.5626 27.7109C10.5626 26.2198 11.7715 25.01 13.2626 25.01C13.558 25.01 13.8423 25.0576 14.1078 25.1456C13.0298 25.4999 12.252 26.5152 12.252 27.7109C12.2521 28.9067 13.0298 29.9211 14.1078 30.2755Z" fill="#FFD064"/>
<path d="M26.1159 30.2755C25.8504 30.3633 25.5662 30.411 25.2707 30.411C23.7786 30.411 22.5698 29.2022 22.5698 27.7109C22.5698 26.2198 23.7786 25.01 25.2707 25.01C25.5661 25.01 25.8504 25.0576 26.1159 25.1456C25.0379 25.4999 24.2601 26.5152 24.2601 27.7109C24.2601 28.9067 25.0379 29.922 26.1159 30.2755Z" fill="#FFD064"/>
<path d="M10.7802 11.1805C12.4116 11.1805 13.7342 9.85798 13.7342 8.22655C13.7342 6.59512 12.4116 5.27258 10.7802 5.27258C9.14877 5.27258 7.82623 6.59512 7.82623 8.22655C7.82623 9.85798 9.14877 11.1805 10.7802 11.1805Z" fill="#E27A66"/>
<path d="M11.7977 11.0004C11.4808 11.1173 11.1376 11.1809 10.7804 11.1809C9.14906 11.1809 7.82611 9.85801 7.82611 8.22653C7.82611 6.59505 9.14896 5.27313 10.7804 5.27313C11.1376 5.27313 11.4807 5.3367 11.7977 5.45267C10.6683 5.86781 9.86148 6.95224 9.86148 8.22653C9.86148 9.50081 10.6683 10.5863 11.7977 11.0004Z" fill="#DD636E"/>
<path d="M46.358 2.43345C46.1087 2.13559 45.6653 2.09631 45.3675 2.3456C45.0698 2.59489 45.0304 3.03834 45.2797 3.3361C46.0856 4.29884 46.5294 5.52194 46.5294 6.7802V11.8672C46.5294 14.8304 44.1183 17.2411 41.1546 17.2411H33.21C33.0073 17.2411 32.8144 17.3286 32.6809 17.4811L28.8772 21.8267C28.49 22.2692 27.9666 22.282 27.6058 22.1465C27.2448 22.0109 26.8591 21.6563 26.8591 21.0681V17.9443C26.8591 17.556 26.5444 17.2411 26.156 17.2411H25.3441C22.3809 17.2411 19.9702 14.8304 19.9702 11.8672V6.7802C19.9702 3.81705 22.3809 1.40629 25.3441 1.40629H41.1546C41.8965 1.40629 42.6154 1.5547 43.2913 1.84721C43.6477 2.00153 44.0615 1.83755 44.2158 1.48129C44.3702 1.12494 44.2062 0.710927 43.8499 0.556704C42.9967 0.187318 42.0898 0 41.1546 0H25.3442C21.6055 0 18.564 3.04162 18.564 6.7802V11.8672C18.564 13.2467 18.9791 14.5306 19.6895 15.6025H11.4833V11.8153C13.1645 11.4864 14.4373 10.0028 14.4373 8.22671C14.4373 6.21018 12.7967 4.5696 10.7802 4.5696C8.76362 4.5696 7.12304 6.21009 7.12304 8.22662C7.12304 10.0027 8.39583 11.4864 10.077 11.8152V15.6261C4.49478 15.9895 0.0641174 20.6455 0.0641174 26.3175V34.5045C0.0641174 38.6611 2.44309 42.2726 5.91082 44.0489C4.58159 44.7268 3.40378 45.677 2.44984 46.8541C2.20534 47.1558 2.25165 47.5986 2.55335 47.8431C2.68366 47.9486 2.84023 47.9999 2.99567 47.9999C3.20052 47.9999 3.4035 47.9109 3.54234 47.7395C4.65191 46.3705 6.10817 45.3539 7.76328 44.7874C8.72068 45.0687 9.73293 45.2204 10.7802 45.2204H27.7544C28.8016 45.2204 29.8138 45.0687 30.7712 44.7874C32.4263 45.3539 33.8827 46.3705 34.9922 47.7395C35.131 47.9109 35.334 47.9999 35.5388 47.9999C35.6943 47.9999 35.8509 47.9485 35.9812 47.8431C36.2829 47.5986 36.3292 47.1558 36.0847 46.8541C35.1307 45.6769 33.9529 44.7268 32.6237 44.0489C36.0915 42.2726 38.4704 38.6611 38.4704 34.5045V26.3175C38.4704 23.3921 37.2893 20.6444 35.2381 18.6474H41.1547C44.8939 18.6474 47.9358 15.6058 47.9358 11.8672V6.7802C47.9357 5.1925 47.3754 3.64876 46.358 2.43345ZM8.52933 8.22662C8.52933 6.98552 9.53905 5.9758 10.7802 5.9758C12.0212 5.9758 13.031 6.98552 13.031 8.22662C13.031 9.46772 12.0212 10.4774 10.7802 10.4774C9.53905 10.4774 8.52933 9.46772 8.52933 8.22662ZM37.064 26.3175V34.5045C37.064 39.6378 32.8877 43.8142 27.7543 43.8142H10.7802C5.64672 43.8142 1.47041 39.6379 1.47041 34.5045V26.3175C1.47041 21.1847 5.64672 17.0087 10.7802 17.0087H20.9317C22.1186 18.0287 23.66 18.6474 25.3442 18.6474H25.4529V19.645H12.6397C8.78631 19.645 5.65141 22.7799 5.65141 26.6333V29.9906C5.65141 30.6125 5.73316 31.229 5.89441 31.823C5.97945 32.136 6.26305 32.3421 6.57253 32.3421C6.63347 32.3421 6.69553 32.3341 6.75722 32.3173C7.13204 32.2156 7.3533 31.8292 7.25158 31.4545C7.12286 30.9807 7.0577 30.4881 7.0577 29.9906V26.6333C7.0577 23.5553 9.56183 21.0512 12.6397 21.0512H25.4529V21.0681C25.4529 22.1444 26.1038 23.0845 27.1112 23.4629C27.4097 23.5751 27.717 23.6295 28.0203 23.6295C28.7331 23.6295 29.423 23.3282 29.9204 22.7692C30.9158 23.8035 31.4764 25.1781 31.4764 26.6333V29.9906C31.4764 33.0686 28.9719 35.5726 25.8935 35.5726H12.6396C11.0021 35.5726 9.45261 34.8572 8.38852 33.6097C8.13651 33.3144 7.69278 33.279 7.39727 33.531C7.10186 33.7831 7.0666 34.2269 7.31861 34.5223C8.65028 36.0835 10.5897 36.9789 12.6396 36.9789H25.8935C29.7473 36.9789 32.8827 33.844 32.8827 29.9906V26.6333C32.8827 24.7701 32.1496 23.012 30.8503 21.7077L33.3363 18.8675C35.681 20.6232 37.064 23.3665 37.064 26.3175Z" fill="black"/>
<path d="M13.2631 31.1147C15.1398 31.1147 16.6667 29.5878 16.6667 27.7111C16.6667 25.8344 15.1398 24.3076 13.2631 24.3076C11.3863 24.3076 9.85956 25.8344 9.85956 27.7111C9.85956 29.5879 11.3864 31.1147 13.2631 31.1147ZM13.2631 25.7138C14.3644 25.7138 15.2604 26.6098 15.2604 27.7111C15.2604 28.8125 14.3644 29.7084 13.2631 29.7084C12.1618 29.7084 11.2658 28.8124 11.2658 27.7111C11.2658 26.6098 12.1618 25.7138 13.2631 25.7138Z" fill="black"/>
<path d="M25.2708 31.1147C27.1475 31.1147 28.6743 29.5878 28.6743 27.7111C28.6743 25.8344 27.1475 24.3076 25.2708 24.3076C23.394 24.3076 21.8672 25.8344 21.8672 27.7111C21.8673 29.5879 23.3941 31.1147 25.2708 31.1147ZM25.2708 25.7138C26.372 25.7138 27.268 26.6098 27.268 27.7111C27.268 28.8125 26.372 29.7084 25.2708 29.7084C24.1695 29.7084 23.2735 28.8124 23.2735 27.7111C23.2736 26.6098 24.1695 25.7138 25.2708 25.7138Z" fill="black"/>
<path d="M21.8765 32.0174H16.6576C16.2691 32.0174 15.9544 32.3322 15.9544 32.7206C15.9544 33.1089 16.2691 33.4237 16.6576 33.4237H21.8765C22.2649 33.4237 22.5796 33.1089 22.5796 32.7206C22.5796 32.3322 22.2649 32.0174 21.8765 32.0174Z" fill="black"/>
<path d="M42.555 7.5613C42.555 7.17298 42.2403 6.85815 41.8518 6.85815H24.552C24.1636 6.85815 23.8489 7.17298 23.8489 7.5613C23.8489 7.94962 24.1636 8.26444 24.552 8.26444H41.8517C42.2402 8.26444 42.555 7.94962 42.555 7.5613Z" fill="black"/>
<path d="M24.552 10.5819C24.1636 10.5819 23.8489 10.8967 23.8489 11.2851C23.8489 11.6734 24.1636 11.9882 24.552 11.9882H36.3434C36.7318 11.9882 37.0465 11.6734 37.0465 11.2851C37.0465 10.8967 36.7318 10.5819 36.3434 10.5819H24.552Z" fill="black"/>
</g>
<defs>
<clipPath id="clip0">
<rect width="48" height="48" fill="white"/>
</clipPath>
</defs>
</svg>
