<svg width="48" height="48" viewBox="0 0 48 48" fill="none" xmlns="http://www.w3.org/2000/svg">
<path d="M46.5 24V43.5C46.5 45.1575 45.1575 46.5 43.5 46.5H4.5C2.8425 46.5 1.5 45.1575 1.5 43.5V24C1.5 22.3425 2.8425 21 4.5 21H21.75H26.25H43.5C45.1575 21 46.5 22.3425 46.5 24Z" fill="#AAB2BD"/>
<path d="M7.5 30.75V36.75C7.5 37.1625 7.1625 37.5 6.75 37.5H5.25C4.8375 37.5 4.5 37.1625 4.5 36.75V30.75C4.5 30.3375 4.8375 30 5.25 30H6.75C7.1625 30 7.5 30.3375 7.5 30.75Z" fill="#E6E9ED"/>
<path d="M11.25 24H39.75C40.1625 24 40.5 24.3375 40.5 24.75V42.75C40.5 43.1625 40.1625 43.5 39.75 43.5H11.25C10.8375 43.5 10.5 43.1625 10.5 42.75V24.75C10.5 24.3375 10.8375 24 11.25 24Z" fill="#69D6F4"/>
<path d="M25.9425 38.6925C26.1375 38.8875 26.25 39.1575 26.25 39.4425C26.25 40.0275 25.7775 40.5 25.1925 40.5H22.8075C22.2225 40.5 21.75 40.0275 21.75 39.4425V34.5H22.8975C23.52 34.5 24.1425 34.5375 24.75 34.6275V37.0575C24.75 37.3425 24.8625 37.6125 25.0575 37.8075L25.9425 38.6925Z" fill="#AAB2BD"/>
<path d="M24.75 34.6275C24.1425 34.5375 23.52 34.5 22.8975 34.5H21.75C20.925 34.5 20.175 34.1625 19.6275 33.6225C19.0875 33.075 18.75 32.325 18.75 31.5C18.75 29.8425 20.0925 28.5 21.75 28.5H22.8975C25.1025 28.5 27.2775 27.99 29.25 27V36C27.8325 35.2875 26.31 34.8225 24.75 34.6275Z" fill="#E6E9ED"/>
<path d="M29.25 27H32.25V36H29.25V27Z" fill="#FCD770"/>
<path d="M39 16.5C43.1421 16.5 46.5 13.1421 46.5 9C46.5 4.85786 43.1421 1.5 39 1.5C34.8579 1.5 31.5 4.85786 31.5 9C31.5 13.1421 34.8579 16.5 39 16.5Z" fill="#FCD770"/>
<path d="M16.5 13.5V15H10.5H4.5V13.5C4.5 10.185 7.185 7.5 10.5 7.5C12.1575 7.5 13.6575 8.175 14.745 9.255C15.825 10.3425 16.5 11.8425 16.5 13.5Z" fill="#B4DD7F"/>
<path d="M10.5 7.5C12.1569 7.5 13.5 6.15685 13.5 4.5C13.5 2.84315 12.1569 1.5 10.5 1.5C8.84315 1.5 7.5 2.84315 7.5 4.5C7.5 6.15685 8.84315 7.5 10.5 7.5Z" fill="#F0D0B4"/>
<path d="M43.5 20.25H27V10.5C27 10.0868 27.3368 9.75 27.75 9.75H30.7882C31.1685 13.9485 34.704 17.25 39 17.25C43.5488 17.25 47.25 13.5487 47.25 9C47.25 4.45125 43.5488 0.75 39 0.75C34.704 0.75 31.1685 4.0515 30.7882 8.25H27.75C26.5095 8.25 25.5 9.2595 25.5 10.5V20.25H22.5V19.5C22.5 18.2595 21.4905 17.25 20.25 17.25H12C11.5868 17.25 11.25 16.9132 11.25 16.5V15.75H17.25V13.5C17.25 10.674 15.5025 8.2515 13.0328 7.24725C13.776 6.56175 14.25 5.58825 14.25 4.5C14.25 2.43225 12.5677 0.75 10.5 0.75C8.43225 0.75 6.75 2.43225 6.75 4.5C6.75 5.58825 7.224 6.56175 7.96725 7.24725C5.4975 8.2515 3.75 10.674 3.75 13.5V15.75H9.75V16.5C9.75 17.7405 10.7595 18.75 12 18.75H20.25C20.6632 18.75 21 19.0868 21 19.5V20.25H4.5C2.43225 20.25 0.75 21.9323 0.75 24V43.5C0.75 45.5677 2.43225 47.25 4.5 47.25H43.5C45.5677 47.25 47.25 45.5677 47.25 43.5V24C47.25 21.9323 45.5677 20.25 43.5 20.25ZM39 2.25C42.7215 2.25 45.75 5.2785 45.75 9C45.75 12.7215 42.7215 15.75 39 15.75C35.2785 15.75 32.25 12.7215 32.25 9C32.25 5.2785 35.2785 2.25 39 2.25ZM8.25 4.5C8.25 3.2595 9.2595 2.25 10.5 2.25C11.7405 2.25 12.75 3.2595 12.75 4.5C12.75 5.7405 11.7405 6.75 10.5 6.75C9.2595 6.75 8.25 5.7405 8.25 4.5ZM5.25 13.5C5.25 10.605 7.605 8.25 10.5 8.25C13.395 8.25 15.75 10.605 15.75 13.5V14.25H5.25V13.5ZM45.75 43.5C45.75 44.7405 44.7405 45.75 43.5 45.75H4.5C3.2595 45.75 2.25 44.7405 2.25 43.5V24C2.25 22.7595 3.2595 21.75 4.5 21.75H43.5C44.7405 21.75 45.75 22.7595 45.75 24V43.5Z" fill="black"/>
<path d="M6.75 29.25H5.25C4.42275 29.25 3.75 29.9227 3.75 30.75V36.75C3.75 37.5773 4.42275 38.25 5.25 38.25H6.75C7.57725 38.25 8.25 37.5773 8.25 36.75V30.75C8.25 29.9227 7.57725 29.25 6.75 29.25ZM5.25 36.75V30.75H6.75L6.75075 36.75H5.25Z" fill="black"/>
<path d="M42.75 29.25H44.25V30.75H42.75V29.25Z" fill="black"/>
<path d="M42.75 32.25H44.25V38.25H42.75V32.25Z" fill="black"/>
<path d="M39.75 23.25H11.25C10.4227 23.25 9.75 23.9227 9.75 24.75V42.75C9.75 43.5772 10.4227 44.25 11.25 44.25H39.75C40.5772 44.25 41.25 43.5772 41.25 42.75V24.75C41.25 23.9227 40.5772 23.25 39.75 23.25ZM11.25 42.75V24.75H39.75L39.7507 42.75H11.25Z" fill="black"/>
<path d="M28.9148 26.3287C27.0563 27.2587 24.975 27.75 22.896 27.75H21.75C19.6823 27.75 18 29.4323 18 31.5C18 33.3105 19.2908 34.8255 21 35.1742V39.4395C21 40.4377 21.8122 41.25 22.8105 41.25H25.1895C26.1877 41.25 27 40.4377 27 39.4395C27 38.9557 26.8117 38.5013 26.4697 38.1593L25.5907 37.2803C25.533 37.2225 25.5 37.1423 25.5 37.0605V35.5117C26.6835 35.7457 27.837 36.132 28.9148 36.6713L29.073 36.75H33V26.25H29.073L28.9148 26.3287ZM19.5 31.5C19.5 30.2595 20.5095 29.25 21.75 29.25H22.896C24.81 29.25 26.7247 28.872 28.5 28.1558V34.8442C26.7247 34.128 24.81 33.75 22.896 33.75H21.75C20.5095 33.75 19.5 32.7405 19.5 31.5ZM24.5303 38.3407L25.4093 39.2197C25.467 39.2775 25.5 39.3577 25.5 39.4395C25.5 39.6105 25.3605 39.75 25.1895 39.75H22.8105C22.6395 39.75 22.5 39.6105 22.5 39.4395V35.25H22.896C23.2642 35.25 23.6325 35.271 24 35.3018V37.0605C24 37.5443 24.1883 37.9987 24.5303 38.3407ZM31.5 35.25H30V27.75H31.5V35.25Z" fill="black"/>
<path d="M38.25 11.25C37.8368 11.25 37.5 10.9132 37.5 10.5H36C36 11.7405 37.0095 12.75 38.25 12.75V14.25H39.75V12.75H42V10.5C42 9.2595 40.9905 8.25 39.75 8.25H38.25C37.8368 8.25 37.5 7.91325 37.5 7.5V6.75H39.75C40.1632 6.75 40.5 7.08675 40.5 7.5H42C42 6.2595 40.9905 5.25 39.75 5.25V3.75H38.25V5.25H36V7.5C36 8.7405 37.0095 9.75 38.25 9.75H39.75C40.1632 9.75 40.5 10.0868 40.5 10.5V11.25H38.25Z" fill="black"/>
<path d="M12.75 29.25H14.25V30.75H12.75V29.25Z" fill="black"/>
<path d="M12.75 26.25H14.25V27.75H12.75V26.25Z" fill="black"/>
<path d="M12.75 32.25H14.25V33.75H12.75V32.25Z" fill="black"/>
<path d="M36.75 33.75H38.25V35.25H36.75V33.75Z" fill="black"/>
<path d="M36.75 36.75H38.25V38.25H36.75V36.75Z" fill="black"/>
<path d="M36.75 39.75H38.25V41.25H36.75V39.75Z" fill="black"/>
</svg>
