<svg width="48" height="48" viewBox="0 0 48 48" fill="none" xmlns="http://www.w3.org/2000/svg">
<path d="M31.2213 12.4133C34.6492 12.4133 37.428 9.63447 37.428 6.20664C37.428 2.77881 34.6492 0 31.2213 0C27.7935 0 25.0147 2.77881 25.0147 6.20664C25.0147 9.63447 27.7935 12.4133 31.2213 12.4133Z" fill="#EAB308"/>
<path d="M17.1104 7.04822C13.6826 7.04822 10.9038 9.82697 10.9038 13.2548C10.9038 13.5182 10.9221 13.7771 10.954 14.0318H23.2669C23.2987 13.7772 23.3171 13.5182 23.3171 13.2548C23.3171 9.82706 20.5383 7.04822 17.1104 7.04822Z" fill="#EAB308"/>
<path d="M29.3381 24.3828H42.698V19.2492C42.698 17.9873 41.675 16.9645 40.4133 16.9645H4.36434C3.10247 16.9645 2.07965 17.9875 2.07965 19.2492V45.7152C2.07965 46.9771 3.10247 47.9999 4.36434 47.9999H40.4133C41.6752 47.9999 42.698 46.977 42.698 45.7152V40.5815H29.3381C26.5859 40.5815 24.3466 38.3424 24.3466 35.5901V29.3743C24.3465 26.622 26.5857 24.3828 29.3381 24.3828Z" fill="#FDE047"/>
<path d="M44.0486 27.5026H29.3381C28.3043 27.5026 27.4664 28.3405 27.4664 29.3743V35.5901C27.4664 36.6239 28.3043 37.4618 29.3381 37.4618H44.0486C45.0824 37.4618 45.9203 36.6239 45.9203 35.5901V29.3743C45.9203 28.3405 45.0822 27.5026 44.0486 27.5026ZM32.4346 34.6792C31.2212 34.6792 30.2375 33.6956 30.2375 32.4822C30.2375 31.2688 31.2212 30.2852 32.4346 30.2852C33.648 30.2852 34.6316 31.2688 34.6316 32.4822C34.6316 33.6956 33.648 34.6792 32.4346 34.6792Z" fill="#FDE047"/>
</svg>
