<svg width="48" height="48" viewBox="0 0 48 48" fill="none" xmlns="http://www.w3.org/2000/svg">
<path d="M36.4614 30.4952C36.8442 29.7637 37.1602 29.003 37.407 28.2188H39C39.7766 28.2188 40.4062 27.5891 40.4062 26.8125V21.1875C40.4062 20.4109 39.7766 19.7812 39 19.7812H37.407C37.1602 18.997 36.8442 18.2363 36.4614 17.5048L37.5897 16.3765C38.1389 15.8273 38.1389 14.937 37.5897 14.3878L33.6122 10.4103C33.0631 9.86109 32.1727 9.86109 31.6235 10.4103L30.4952 11.5386C29.7638 11.1559 29.0029 10.8397 28.2188 10.593V9C28.2188 8.22337 27.5891 7.59375 26.8125 7.59375H21.1875C20.4109 7.59375 19.7812 8.22337 19.7812 9V10.593C18.9971 10.8398 18.2362 11.1559 17.5048 11.5386L16.3765 10.4103C16.1129 10.1466 15.7552 9.99834 15.3822 9.99834C15.0093 9.99834 14.6515 10.1466 14.3879 10.4103L10.4105 14.3878C9.86128 14.937 9.86128 15.8273 10.4105 16.3765L11.5387 17.5048C11.1559 18.2363 10.8399 18.997 10.5931 19.7813H9C8.22337 19.7813 7.59375 20.411 7.59375 21.1876V26.8126C7.59375 27.5892 8.22337 28.2188 9 28.2188H10.593C10.8398 29.0032 11.1558 29.7638 11.5386 30.4954L10.4104 31.6236C9.86119 32.1727 9.86119 33.0631 10.4104 33.6123L14.3878 37.5898C14.6514 37.8535 15.0092 38.0017 15.3821 38.0017C15.7551 38.0017 16.1128 37.8535 16.3764 37.5898L17.5047 36.4615C18.2362 36.8442 18.997 37.1602 19.7812 37.4071V39C19.7812 39.7766 20.4108 40.4062 21.1874 40.4062H26.8124C27.589 40.4062 28.2187 39.7766 28.2187 39V37.407C29.0029 37.1602 29.7636 36.8441 30.4951 36.4614L31.6234 37.5897C32.1725 38.1389 33.0629 38.1389 33.6121 37.5897L37.5896 33.6122C38.1388 33.063 38.1388 32.1727 37.5896 31.6235L36.4614 30.4952ZM34.9605 26.5009C34.681 27.7311 34.195 28.9013 33.5161 29.979C33.1662 30.5347 33.2473 31.2585 33.7117 31.7228L34.6067 32.6179L32.6179 34.6066L31.7228 33.7117C31.2586 33.2473 30.5345 33.1661 29.979 33.5162C28.9012 34.195 27.731 34.681 26.5008 34.9606C25.8607 35.1061 25.4062 35.6753 25.4062 36.3319V37.5938H22.5938V36.3318C22.5938 35.6753 22.1393 35.106 21.4991 34.9605C20.269 34.6809 19.0988 34.195 18.0209 33.5162C17.4652 33.1662 16.7414 33.2473 16.2771 33.7117L15.382 34.6066L13.3933 32.6179L14.2883 31.7229C14.7526 31.2586 14.8337 30.5347 14.4838 29.9791C13.805 28.9013 13.319 27.7312 13.0394 26.5009C12.8939 25.8606 12.3247 25.4062 11.6681 25.4062H10.4062V22.5938H11.6682C12.3248 22.5938 12.894 22.1393 13.0395 21.4991C13.319 20.2689 13.805 19.0988 14.4839 18.021C14.8338 17.4653 14.7527 16.7415 14.2883 16.2772L13.3934 15.3822L15.3821 13.3935L16.2772 14.2884C16.7414 14.7529 17.4655 14.834 18.021 14.4839C19.0988 13.8051 20.269 13.3192 21.4992 13.0396C22.1394 12.8941 22.5938 12.3248 22.5938 11.6683V10.4062H25.4063V11.6682C25.4063 12.3248 25.8608 12.894 26.501 13.0395C27.7311 13.319 28.9013 13.805 29.9792 14.4839C30.5348 14.8339 31.2586 14.7527 31.723 14.2884L32.6181 13.3935L34.6069 15.3822L33.7118 16.2772C33.2475 16.7416 33.1664 17.4654 33.5163 18.0211C34.1952 19.0988 34.6812 20.269 34.9607 21.4992C35.1062 22.1395 35.6753 22.5938 36.332 22.5938H37.5938V25.4063H36.3318C35.6752 25.4062 35.106 25.8607 34.9605 26.5009Z" fill="#EF4444"/>
<path d="M24 15.0938C19.0891 15.0938 15.0938 19.0891 15.0938 24C15.0938 28.9109 19.0891 32.9062 24 32.9062C28.9109 32.9062 32.9062 28.9109 32.9062 24C32.9062 19.0891 28.9109 15.0938 24 15.0938ZM24 30.0938C20.6399 30.0938 17.9062 27.3601 17.9062 24C17.9062 20.6399 20.6399 17.9062 24 17.9062C27.3601 17.9062 30.0938 20.6399 30.0938 24C30.0938 27.3601 27.3601 30.0938 24 30.0938Z" fill="#EF4444"/>
<path d="M43.7261 38.57H43.0738C46.2683 34.4058 48 29.3364 48 24C48 17.5894 45.5035 11.5625 40.9706 7.02938C36.4375 2.49647 30.4106 0 24 0C20.7605 0 17.6174 0.634781 14.6577 1.88663C13.9424 2.18916 13.6079 3.01434 13.9103 3.72956C14.2129 4.44488 15.0376 4.77938 15.7534 4.47694C18.3645 3.37247 21.139 2.8125 24 2.8125C35.6828 2.8125 45.1875 12.3172 45.1875 24C45.1875 28.4018 43.8531 32.5979 41.3776 36.1286C41.3273 35.3977 40.7199 34.82 39.9762 34.82C39.1996 34.82 38.57 35.4496 38.57 36.2262V39.9762C38.57 40.7528 39.1996 41.3825 39.9762 41.3825H43.7261C44.5028 41.3825 45.1324 40.7528 45.1324 39.9762C45.1324 39.1996 44.5028 38.57 43.7261 38.57Z" fill="#FCA5A5"/>
<path d="M32.2466 43.5231C29.6355 44.6276 26.861 45.1875 24 45.1875C12.3172 45.1875 2.8125 35.6829 2.8125 24C2.8125 19.5978 4.14647 15.4009 6.62241 11.8699C6.672 12.6015 7.27959 13.1801 8.02378 13.1801C8.80041 13.1801 9.43003 12.5504 9.43003 11.7738V8.0238C9.43003 7.24718 8.80041 6.61755 8.02378 6.61755H4.27378C3.49716 6.61755 2.86753 7.24718 2.86753 8.0238C2.86753 8.80043 3.49716 9.43005 4.27378 9.43005H4.92675C1.73194 13.5941 0 18.6635 0 24C0 30.4106 2.49647 36.4376 7.02938 40.9706C11.5625 45.5036 17.5894 48 24 48C27.2394 48 30.3826 47.3652 33.3423 46.1134C34.0576 45.8109 34.3921 44.9857 34.0897 44.2705C33.7871 43.5551 32.9622 43.2205 32.2466 43.5231Z" fill="#FCA5A5"/>
</svg>
