<svg width="48" height="48" viewBox="0 0 48 48" fill="none" xmlns="http://www.w3.org/2000/svg">
<g clip-path="url(#clip0)">
<path d="M41.1428 0C40.196 0 39.4285 0.767511 39.4285 1.71432V7.97655C30.6027 -0.568124 16.5212 -0.340112 7.97655 8.48561C3.94965 12.645 1.70317 18.2106 1.71432 24C1.71432 24.9468 2.48183 25.7143 3.42864 25.7143C4.37545 25.7143 5.14286 24.9468 5.14286 24C5.14497 13.5855 13.5892 5.14446 24.0038 5.14657C29.293 5.14757 34.3385 7.36995 37.9098 11.2714L30.3155 13.8033C29.4161 14.1026 28.9295 15.0742 29.2287 15.9736C29.5279 16.873 30.4995 17.3596 31.3989 17.0604L41.6846 13.6319C42.3868 13.398 42.8596 12.7399 42.8573 11.9999V1.71422C42.8571 0.767511 42.0896 0 41.1428 0Z" fill="#6EE7B7"/>
<path d="M44.5713 22.2858C43.6245 22.2858 42.857 23.0533 42.857 24.0001C42.8549 34.4146 34.4107 42.8556 23.9961 42.8534C18.7069 42.8524 13.6614 40.6301 10.0901 36.7286L17.6844 34.1967C18.5838 33.8975 19.0704 32.9258 18.7712 32.0264C18.472 31.127 17.5004 30.6404 16.601 30.9396L6.31526 34.3681C5.61314 34.602 5.14034 35.2601 5.14265 36.0001V46.2858C5.14265 47.2326 5.91016 48.0001 6.85696 48.0001C7.80377 48.0001 8.57128 47.2326 8.57128 46.2858V40.0235C17.3971 48.5681 31.4787 48.3402 40.0232 39.5144C44.0501 35.355 46.2966 29.7894 46.2855 24.0001C46.2857 23.0533 45.5182 22.2858 44.5713 22.2858Z" fill="#22C55E"/>
</g>
<defs>
<clipPath id="clip0">
<rect width="48" height="48" fill="white"/>
</clipPath>
</defs>
</svg>
