<svg width="48" height="48" viewBox="0 0 48 48" fill="none" xmlns="http://www.w3.org/2000/svg">
<g clip-path="url(#clip0)">
<path d="M45.8178 10.9087H7.44875L14.6332 3.72409C15.4853 2.87216 15.4853 1.49064 14.6332 0.638566C13.7813 -0.213506 12.3997 -0.213506 11.5477 0.638566L0.638566 11.5477C-0.213506 12.3996 -0.213506 13.7811 0.638566 14.6332L11.5477 25.5423C11.9737 25.9683 12.5321 26.1814 13.0905 26.1814C13.6489 26.1814 14.2073 25.9683 14.6332 25.5423C15.4853 24.6903 15.4853 23.3088 14.6332 22.4567L7.44875 15.2723H45.8178C47.0227 15.2723 47.9996 14.2954 47.9996 13.0905C47.9996 11.8855 47.0227 10.9087 45.8178 10.9087Z" fill="#A855F7"/>
<path d="M36.4518 22.4572C35.5999 21.6053 34.2183 21.6053 33.3663 22.4572C32.5142 23.3091 32.5142 24.6906 33.3663 25.5427L40.5508 32.7273H2.18182C0.976873 32.7273 0 33.7042 0 34.9091C0 36.1141 0.976873 37.0909 2.18182 37.0909H40.5508L33.3664 44.2755C32.5143 45.1275 32.5143 46.509 33.3664 47.361C33.7923 47.7869 34.3507 48 34.9091 48C35.4675 48 36.0259 47.7869 36.4518 47.3609L47.3609 36.4518C48.2129 35.5999 48.2129 34.2184 47.3609 33.3663L36.4518 22.4572Z" fill="#D8B4FE"/>
</g>
<defs>
<clipPath id="clip0">
<rect width="48" height="48" fill="white"/>
</clipPath>
</defs>
</svg>
